<?xml version="1.0" encoding="windows-1252"?>
<!-- Generator: Adobe Illustrator 19.0.0, SVG Export Plug-In . SVG Version: 6.00 Build 0)  -->
<svg version="1.1" id="Capa_1" xmlns="http://www.w3.org/2000/svg" xmlns:xlink="http://www.w3.org/1999/xlink" x="0px" y="0px" viewBox="0 0 512 512" style="enable-background:new 0 0 512 512;" xml:space="preserve">
<g>
<path fill="#FFFFFF" d="M321.773,344.728c-6.21-3.573-13.534-3.338-19.496,0.587l-26.281,17.355l-2.084,34.865l-20.903,35.7    c-4.146,7.178-1.685,16.348,5.493,20.493c7.099,4.1,16.302,1.743,20.493-5.493l22.297-38.077l26.669-17.604    c0.449-0.297,0.818-0.679,1.265-0.98l1.776-29.678C331.427,354.733,327.984,348.317,321.773,344.728z"/>
</g>
<g>
<path fill="#FFFFFF" d="M344.498,417.591l-20.858,13.76l-18.766,32.045c-12.255,21.147-39.787,28.812-61.377,16.304    c-21.52-12.411-28.923-39.913-16.465-61.465l17.366-29.656l1.663-27.81c2.988-49.937,20.889-97.119,51.782-136.465L350.286,152    H0.003v315c0,24.814,20.185,45,45,45h302c24.814,0,45-20.186,45-45v-91.159C378.021,391.497,362.378,405.782,344.498,417.591z     M75.003,212h61c8.291,0,15,6.709,15,15s-6.709,15-15,15h-61c-8.291,0-15-6.709-15-15S66.712,212,75.003,212z M75.003,302h91    c8.291,0,16,6.709,16,15c0,8.291-7.709,15-16,15h-91c-8.291,0-15-6.709-15-15C60.003,308.709,66.712,302,75.003,302z M197.003,422    h-122c-8.291,0-15-6.709-15-15c0-8.291,6.709-15,15-15h122c8.291,0,15,6.709,15,15C212.003,415.291,205.294,422,197.003,422z"/>
</g>
<g>
<path fill="#FFFFFF" d="M347.003,31h-15V15c0-8.291-6.709-15-15-15c-8.291,0-15,6.709-15,15v16h-30V15c0-8.291-6.709-15-15-15    c-8.291,0-15,6.709-15,15v16h-30V15c0-8.291-6.709-15-15-15s-15,6.709-15,15v16h-31V15c0-8.291-6.709-15-15-15s-15,6.709-15,15v16    h-31V15c0-8.291-6.709-15-15-15s-15,6.709-15,15v16h-15c-24.814,0-45,20.186-45,45v46h372.042l19.958-27.517V76    C392.003,51.186,371.817,31,347.003,31z"/>
</g>
<g>
<path fill="#FFFFFF" d="M489.202,176.3c-3.001-1.725-84.3-48.6-84.3-48.6l-0.3,0.3l-17.399,24.3l-65.7,90.599    c-18.6,23.701-31.501,50.7-38.701,79.501l3.001-2.1c15.298-10.201,34.799-10.8,50.999-1.5c15.901,9.3,25.201,26.4,24.001,45v1.199    c20.7-20.4,37.2-44.399,47.999-71.4l43.5-104.099l21.899,12.599c7.597,4.675,10.543,15.802,3.3,23.699L464.902,238.7    c-32.699,33.6-52.2,77.999-54.901,124.799c-0.599,8.101,5.7,15.3,14.101,15.899h0.899c7.8,0,14.401-6.299,15-14.099    c2.401-39.6,18.9-77.1,46.501-105.601l12.601-13.199C519.261,225.715,514.455,190.818,489.202,176.3z"/>
</g>
<g>
<path fill="#FFFFFF" d="M507.947,76.778c0.119-0.213,0.114-0.204,0.006-0.011C507.951,76.771,507.949,76.774,507.947,76.778z"/>
<path fill="#FFFFFF" d="M497.034,35.821c-13.843-8.057-33.047-2.886-41.016,10.913c-1.783,3.025-35.48,60.168-33.387,56.62l53.115,30.668     c1.619-2.881,30.481-54.188,32.207-57.255C516.348,62.282,511.176,43.933,497.034,35.821z"/>
</g>
</svg>
