<svg width="57" height="57" viewBox="0 0 57 57" fill="none" xmlns="http://www.w3.org/2000/svg">
<path d="M42 0H15C6.71573 0 0 6.71573 0 15V42C0 50.2843 6.71573 57 15 57H42C50.2843 57 57 50.2843 57 42V15C57 6.71573 50.2843 0 42 0Z" fill="#FF9898"/>
<path d="M12.05 19.3361C14.242 19.3361 15.922 19.8801 17.09 20.9681C18.258 22.0401 18.842 23.4801 18.842 25.2881C18.842 26.0081 18.73 26.7361 18.506 27.4721C18.298 28.1921 17.954 28.8481 17.474 29.4401C17.01 30.0321 16.378 30.5121 15.578 30.8801C14.794 31.2321 13.826 31.4081 12.674 31.4081H10.178V37.0001H6.698V19.3361H12.05ZM12.65 28.0241C13.354 28.0241 13.898 27.8721 14.282 27.5681C14.682 27.2481 14.962 26.8801 15.122 26.4641C15.282 26.0481 15.362 25.6881 15.362 25.3841C15.362 25.2081 15.33 24.9761 15.266 24.6881C15.218 24.3841 15.106 24.0801 14.93 23.7761C14.754 23.4721 14.482 23.2161 14.114 23.0081C13.762 22.8001 13.282 22.6961 12.674 22.6961H10.178V28.0241H12.65ZM21.9558 37.0001V19.3361H27.2358C29.0118 19.3361 30.5238 19.6001 31.7718 20.1281C33.0198 20.6561 34.0198 21.3601 34.7718 22.2401C35.5398 23.1201 36.0998 24.1041 36.4518 25.1921C36.8038 26.2801 36.9798 27.3761 36.9798 28.4801C36.9798 29.7921 36.7398 30.9761 36.2598 32.0321C35.7958 33.0721 35.1558 33.9681 34.3398 34.7201C33.5238 35.4561 32.5798 36.0241 31.5078 36.4241C30.4358 36.8081 29.2998 37.0001 28.0998 37.0001H21.9558ZM25.4358 33.6401H27.4998C29.2598 33.6401 30.6758 33.1841 31.7478 32.2721C32.8358 31.3601 33.3798 30.0161 33.3798 28.2401C33.3798 27.0881 33.1878 26.1521 32.8038 25.4321C32.4358 24.6961 31.9718 24.1281 31.4118 23.7281C30.8678 23.3281 30.3078 23.0561 29.7318 22.9121C29.1558 22.7521 28.6678 22.6721 28.2678 22.6721H25.4358V33.6401ZM40.4714 19.3361H51.5114V22.6961H43.9514V26.7041H50.5034V30.0641H43.9514V37.0001H40.4714V19.3361Z" fill="white" fill-opacity="0.8"/>
</svg>
